<mxfile host="app.diagrams.net" agent="Mozilla/5.0 (X11; Linux x86_64) AppleWebKit/537.36 (KHTML, like Gecko) Chrome/126.0.0.0 Safari/537.36" version="24.7.16">
  <diagram name="PÃ¡gina-1" id="0iWbRuutoeWX9qVEgdCc">
    <mxGraphModel dx="794" dy="724" grid="1" gridSize="10" guides="1" tooltips="1" connect="1" arrows="1" fold="1" page="1" pageScale="1" pageWidth="827" pageHeight="1169" math="0" shadow="0">
      <root>
        <mxCell id="0" />
        <mxCell id="1" parent="0" />
        <mxCell id="bae6erq2w6pRyWb36ssz-1" value="Clientes" style="rounded=0;whiteSpace=wrap;html=1;" vertex="1" parent="1">
          <mxGeometry x="130" y="250" width="90" height="40" as="geometry" />
        </mxCell>
        <mxCell id="bae6erq2w6pRyWb36ssz-2" value="Cuentas&amp;nbsp;" style="rounded=0;whiteSpace=wrap;html=1;glass=0;shadow=0;" vertex="1" parent="1">
          <mxGeometry x="480" y="250" width="90" height="40" as="geometry" />
        </mxCell>
        <mxCell id="bae6erq2w6pRyWb36ssz-3" value="Surcursales" style="rounded=0;whiteSpace=wrap;html=1;" vertex="1" parent="1">
          <mxGeometry x="115" y="448" width="90" height="40" as="geometry" />
        </mxCell>
        <mxCell id="bae6erq2w6pRyWb36ssz-4" value="Transaciones producidas" style="rounded=0;whiteSpace=wrap;html=1;" vertex="1" parent="1">
          <mxGeometry x="480" y="470" width="90" height="40" as="geometry" />
        </mxCell>
        <mxCell id="bae6erq2w6pRyWb36ssz-6" value="" style="ellipse;whiteSpace=wrap;html=1;aspect=fixed;fillColor=#000000;" vertex="1" parent="1">
          <mxGeometry x="90" y="150" width="40" height="40" as="geometry" />
        </mxCell>
        <mxCell id="bae6erq2w6pRyWb36ssz-7" value="" style="ellipse;whiteSpace=wrap;html=1;aspect=fixed;" vertex="1" parent="1">
          <mxGeometry x="150" y="150" width="40" height="40" as="geometry" />
        </mxCell>
        <mxCell id="bae6erq2w6pRyWb36ssz-8" value="" style="ellipse;whiteSpace=wrap;html=1;aspect=fixed;" vertex="1" parent="1">
          <mxGeometry x="220" y="150" width="40" height="40" as="geometry" />
        </mxCell>
        <mxCell id="bae6erq2w6pRyWb36ssz-10" value="num" style="text;html=1;align=center;verticalAlign=middle;resizable=0;points=[];autosize=1;strokeColor=none;fillColor=none;" vertex="1" parent="1">
          <mxGeometry x="75" y="108" width="50" height="30" as="geometry" />
        </mxCell>
        <mxCell id="bae6erq2w6pRyWb36ssz-11" value="fecha" style="text;html=1;align=center;verticalAlign=middle;resizable=0;points=[];autosize=1;strokeColor=none;fillColor=none;" vertex="1" parent="1">
          <mxGeometry x="135" y="108" width="50" height="30" as="geometry" />
        </mxCell>
        <mxCell id="bae6erq2w6pRyWb36ssz-12" value="Cantidad" style="text;html=1;align=center;verticalAlign=middle;resizable=0;points=[];autosize=1;strokeColor=none;fillColor=none;" vertex="1" parent="1">
          <mxGeometry x="220" y="108" width="70" height="30" as="geometry" />
        </mxCell>
        <mxCell id="bae6erq2w6pRyWb36ssz-13" value="Tiene" style="rhombus;whiteSpace=wrap;html=1;" vertex="1" parent="1">
          <mxGeometry x="310" y="240" width="80" height="60" as="geometry" />
        </mxCell>
        <mxCell id="bae6erq2w6pRyWb36ssz-14" value="" style="ellipse;whiteSpace=wrap;html=1;aspect=fixed;" vertex="1" parent="1">
          <mxGeometry x="540" y="160" width="40" height="40" as="geometry" />
        </mxCell>
        <mxCell id="bae6erq2w6pRyWb36ssz-15" value="" style="ellipse;whiteSpace=wrap;html=1;aspect=fixed;" vertex="1" parent="1">
          <mxGeometry x="620" y="160" width="40" height="40" as="geometry" />
        </mxCell>
        <mxCell id="bae6erq2w6pRyWb36ssz-17" value="" style="ellipse;whiteSpace=wrap;html=1;aspect=fixed;fillColor=#000000;" vertex="1" parent="1">
          <mxGeometry x="440" y="160" width="40" height="40" as="geometry" />
        </mxCell>
        <mxCell id="bae6erq2w6pRyWb36ssz-18" value="Cod cuenta" style="text;html=1;align=center;verticalAlign=middle;resizable=0;points=[];autosize=1;strokeColor=none;fillColor=none;" vertex="1" parent="1">
          <mxGeometry x="410" y="118" width="80" height="30" as="geometry" />
        </mxCell>
        <mxCell id="bae6erq2w6pRyWb36ssz-19" value="fecha" style="text;html=1;align=center;verticalAlign=middle;resizable=0;points=[];autosize=1;strokeColor=none;fillColor=none;" vertex="1" parent="1">
          <mxGeometry x="530" y="118" width="50" height="30" as="geometry" />
        </mxCell>
        <mxCell id="bae6erq2w6pRyWb36ssz-20" value="alta" style="text;html=1;align=center;verticalAlign=middle;resizable=0;points=[];autosize=1;strokeColor=none;fillColor=none;" vertex="1" parent="1">
          <mxGeometry x="620" y="118" width="40" height="30" as="geometry" />
        </mxCell>
        <mxCell id="bae6erq2w6pRyWb36ssz-22" value="" style="ellipse;whiteSpace=wrap;html=1;aspect=fixed;fillColor=#000000;" vertex="1" parent="1">
          <mxGeometry x="60" y="510" width="40" height="40" as="geometry" />
        </mxCell>
        <mxCell id="bae6erq2w6pRyWb36ssz-23" value="" style="ellipse;whiteSpace=wrap;html=1;aspect=fixed;" vertex="1" parent="1">
          <mxGeometry x="140" y="510" width="40" height="40" as="geometry" />
        </mxCell>
        <mxCell id="bae6erq2w6pRyWb36ssz-25" value="Cod surcu" style="text;html=1;align=center;verticalAlign=middle;resizable=0;points=[];autosize=1;strokeColor=none;fillColor=none;" vertex="1" parent="1">
          <mxGeometry x="40" y="560" width="80" height="30" as="geometry" />
        </mxCell>
        <mxCell id="bae6erq2w6pRyWb36ssz-27" value="nombre" style="text;html=1;align=center;verticalAlign=middle;resizable=0;points=[];autosize=1;strokeColor=none;fillColor=none;" vertex="1" parent="1">
          <mxGeometry x="130" y="560" width="60" height="30" as="geometry" />
        </mxCell>
        <mxCell id="bae6erq2w6pRyWb36ssz-28" value="" style="endArrow=none;html=1;rounded=0;exitX=1;exitY=0.5;exitDx=0;exitDy=0;entryX=0;entryY=0.5;entryDx=0;entryDy=0;" edge="1" parent="1" source="bae6erq2w6pRyWb36ssz-1" target="bae6erq2w6pRyWb36ssz-13">
          <mxGeometry width="50" height="50" relative="1" as="geometry">
            <mxPoint x="240" y="300" as="sourcePoint" />
            <mxPoint x="290" y="250" as="targetPoint" />
          </mxGeometry>
        </mxCell>
        <mxCell id="bae6erq2w6pRyWb36ssz-29" value="" style="endArrow=none;html=1;rounded=0;exitX=1;exitY=0.5;exitDx=0;exitDy=0;entryX=0;entryY=0.5;entryDx=0;entryDy=0;" edge="1" parent="1" source="bae6erq2w6pRyWb36ssz-13" target="bae6erq2w6pRyWb36ssz-2">
          <mxGeometry width="50" height="50" relative="1" as="geometry">
            <mxPoint x="390" y="340" as="sourcePoint" />
            <mxPoint x="440" y="290" as="targetPoint" />
          </mxGeometry>
        </mxCell>
        <mxCell id="bae6erq2w6pRyWb36ssz-30" value="1,n" style="text;html=1;align=center;verticalAlign=middle;resizable=0;points=[];autosize=1;strokeColor=none;fillColor=none;" vertex="1" parent="1">
          <mxGeometry x="220" y="240" width="40" height="30" as="geometry" />
        </mxCell>
        <mxCell id="bae6erq2w6pRyWb36ssz-31" value="1,n" style="text;html=1;align=center;verticalAlign=middle;resizable=0;points=[];autosize=1;strokeColor=none;fillColor=none;" vertex="1" parent="1">
          <mxGeometry x="440" y="238" width="40" height="30" as="geometry" />
        </mxCell>
        <mxCell id="bae6erq2w6pRyWb36ssz-33" value="pertence" style="rhombus;whiteSpace=wrap;html=1;" vertex="1" parent="1">
          <mxGeometry x="300" y="350" width="80" height="60" as="geometry" />
        </mxCell>
        <mxCell id="bae6erq2w6pRyWb36ssz-34" value="" style="endArrow=none;html=1;rounded=0;entryX=0;entryY=1;entryDx=0;entryDy=0;exitX=1;exitY=0.5;exitDx=0;exitDy=0;" edge="1" parent="1" source="bae6erq2w6pRyWb36ssz-33" target="bae6erq2w6pRyWb36ssz-2">
          <mxGeometry width="50" height="50" relative="1" as="geometry">
            <mxPoint x="440" y="380" as="sourcePoint" />
            <mxPoint x="490" y="330" as="targetPoint" />
          </mxGeometry>
        </mxCell>
        <mxCell id="bae6erq2w6pRyWb36ssz-35" value="" style="endArrow=none;html=1;rounded=0;entryX=0;entryY=0.5;entryDx=0;entryDy=0;exitX=1;exitY=0;exitDx=0;exitDy=0;" edge="1" parent="1" source="bae6erq2w6pRyWb36ssz-3" target="bae6erq2w6pRyWb36ssz-33">
          <mxGeometry width="50" height="50" relative="1" as="geometry">
            <mxPoint x="220" y="440" as="sourcePoint" />
            <mxPoint x="270" y="390" as="targetPoint" />
          </mxGeometry>
        </mxCell>
        <mxCell id="bae6erq2w6pRyWb36ssz-36" value="1,1" style="text;html=1;align=center;verticalAlign=middle;resizable=0;points=[];autosize=1;strokeColor=none;fillColor=none;" vertex="1" parent="1">
          <mxGeometry x="180" y="418" width="40" height="30" as="geometry" />
        </mxCell>
        <mxCell id="bae6erq2w6pRyWb36ssz-37" value="1,n" style="text;html=1;align=center;verticalAlign=middle;resizable=0;points=[];autosize=1;strokeColor=none;fillColor=none;" vertex="1" parent="1">
          <mxGeometry x="440" y="278" width="40" height="30" as="geometry" />
        </mxCell>
        <mxCell id="bae6erq2w6pRyWb36ssz-38" value="1,N" style="text;html=1;align=center;verticalAlign=middle;resizable=0;points=[];autosize=1;strokeColor=none;fillColor=none;" vertex="1" parent="1">
          <mxGeometry x="300" y="328" width="40" height="30" as="geometry" />
        </mxCell>
        <mxCell id="bae6erq2w6pRyWb36ssz-40" value="realizan" style="rhombus;whiteSpace=wrap;html=1;" vertex="1" parent="1">
          <mxGeometry x="485" y="350" width="80" height="60" as="geometry" />
        </mxCell>
        <mxCell id="bae6erq2w6pRyWb36ssz-42" value="" style="endArrow=none;html=1;rounded=0;exitX=0.5;exitY=0;exitDx=0;exitDy=0;entryX=0.5;entryY=1;entryDx=0;entryDy=0;" edge="1" parent="1" source="bae6erq2w6pRyWb36ssz-40" target="bae6erq2w6pRyWb36ssz-2">
          <mxGeometry width="50" height="50" relative="1" as="geometry">
            <mxPoint x="540" y="340" as="sourcePoint" />
            <mxPoint x="590" y="290" as="targetPoint" />
          </mxGeometry>
        </mxCell>
        <mxCell id="bae6erq2w6pRyWb36ssz-43" value="" style="ellipse;whiteSpace=wrap;html=1;aspect=fixed;" vertex="1" parent="1">
          <mxGeometry x="200" y="510" width="40" height="40" as="geometry" />
        </mxCell>
        <mxCell id="bae6erq2w6pRyWb36ssz-45" value="Localidad" style="text;html=1;align=center;verticalAlign=middle;resizable=0;points=[];autosize=1;strokeColor=none;fillColor=none;" vertex="1" parent="1">
          <mxGeometry x="185" y="558" width="70" height="30" as="geometry" />
        </mxCell>
        <mxCell id="bae6erq2w6pRyWb36ssz-46" value="0,n" style="text;html=1;align=center;verticalAlign=middle;resizable=0;points=[];autosize=1;strokeColor=none;fillColor=none;" vertex="1" parent="1">
          <mxGeometry x="530" y="438" width="40" height="30" as="geometry" />
        </mxCell>
        <mxCell id="bae6erq2w6pRyWb36ssz-47" value="1,1" style="text;html=1;align=center;verticalAlign=middle;resizable=0;points=[];autosize=1;strokeColor=none;fillColor=none;" vertex="1" parent="1">
          <mxGeometry x="520" y="288" width="40" height="30" as="geometry" />
        </mxCell>
        <mxCell id="bae6erq2w6pRyWb36ssz-48" value="" style="ellipse;whiteSpace=wrap;html=1;aspect=fixed;fillColor=#000000;" vertex="1" parent="1">
          <mxGeometry x="460" y="545" width="40" height="40" as="geometry" />
        </mxCell>
        <mxCell id="bae6erq2w6pRyWb36ssz-49" value="num trn" style="text;html=1;align=center;verticalAlign=middle;resizable=0;points=[];autosize=1;strokeColor=none;fillColor=none;" vertex="1" parent="1">
          <mxGeometry x="440" y="578" width="60" height="30" as="geometry" />
        </mxCell>
        <mxCell id="bae6erq2w6pRyWb36ssz-50" value="" style="ellipse;whiteSpace=wrap;html=1;aspect=fixed;" vertex="1" parent="1">
          <mxGeometry x="525" y="545" width="40" height="40" as="geometry" />
        </mxCell>
        <mxCell id="bae6erq2w6pRyWb36ssz-51" value="cantidad" style="text;html=1;align=center;verticalAlign=middle;resizable=0;points=[];autosize=1;strokeColor=none;fillColor=none;" vertex="1" parent="1">
          <mxGeometry x="505" y="578" width="70" height="30" as="geometry" />
        </mxCell>
        <mxCell id="bae6erq2w6pRyWb36ssz-52" value="" style="ellipse;whiteSpace=wrap;html=1;aspect=fixed;" vertex="1" parent="1">
          <mxGeometry x="600" y="545" width="40" height="40" as="geometry" />
        </mxCell>
        <mxCell id="bae6erq2w6pRyWb36ssz-53" value="fecha" style="text;html=1;align=center;verticalAlign=middle;resizable=0;points=[];autosize=1;strokeColor=none;fillColor=none;" vertex="1" parent="1">
          <mxGeometry x="595" y="585" width="50" height="30" as="geometry" />
        </mxCell>
        <mxCell id="bae6erq2w6pRyWb36ssz-54" value="" style="endArrow=classic;html=1;rounded=0;exitX=0.5;exitY=1;exitDx=0;exitDy=0;entryX=0.5;entryY=0;entryDx=0;entryDy=0;" edge="1" parent="1" source="bae6erq2w6pRyWb36ssz-40" target="bae6erq2w6pRyWb36ssz-4">
          <mxGeometry width="50" height="50" relative="1" as="geometry">
            <mxPoint x="570" y="438" as="sourcePoint" />
            <mxPoint x="620" y="388" as="targetPoint" />
          </mxGeometry>
        </mxCell>
        <mxCell id="bae6erq2w6pRyWb36ssz-55" value="" style="endArrow=none;html=1;rounded=0;exitX=0.5;exitY=0;exitDx=0;exitDy=0;entryX=0;entryY=0.75;entryDx=0;entryDy=0;" edge="1" parent="1" source="bae6erq2w6pRyWb36ssz-22" target="bae6erq2w6pRyWb36ssz-3">
          <mxGeometry width="50" height="50" relative="1" as="geometry">
            <mxPoint x="50" y="500" as="sourcePoint" />
            <mxPoint x="100" y="450" as="targetPoint" />
          </mxGeometry>
        </mxCell>
        <mxCell id="bae6erq2w6pRyWb36ssz-56" value="" style="endArrow=none;html=1;rounded=0;exitX=0.5;exitY=0;exitDx=0;exitDy=0;entryX=0.5;entryY=1;entryDx=0;entryDy=0;" edge="1" parent="1" source="bae6erq2w6pRyWb36ssz-23" target="bae6erq2w6pRyWb36ssz-3">
          <mxGeometry width="50" height="50" relative="1" as="geometry">
            <mxPoint x="120" y="550" as="sourcePoint" />
            <mxPoint x="170" y="500" as="targetPoint" />
          </mxGeometry>
        </mxCell>
        <mxCell id="bae6erq2w6pRyWb36ssz-57" value="" style="endArrow=none;html=1;rounded=0;exitX=0.5;exitY=0;exitDx=0;exitDy=0;entryX=1;entryY=1;entryDx=0;entryDy=0;" edge="1" parent="1" source="bae6erq2w6pRyWb36ssz-43" target="bae6erq2w6pRyWb36ssz-3">
          <mxGeometry width="50" height="50" relative="1" as="geometry">
            <mxPoint x="220" y="500" as="sourcePoint" />
            <mxPoint x="270" y="450" as="targetPoint" />
          </mxGeometry>
        </mxCell>
        <mxCell id="bae6erq2w6pRyWb36ssz-58" value="" style="endArrow=none;html=1;rounded=0;exitX=0.5;exitY=0;exitDx=0;exitDy=0;entryX=0;entryY=1;entryDx=0;entryDy=0;" edge="1" parent="1" source="bae6erq2w6pRyWb36ssz-48" target="bae6erq2w6pRyWb36ssz-4">
          <mxGeometry width="50" height="50" relative="1" as="geometry">
            <mxPoint x="400" y="550" as="sourcePoint" />
            <mxPoint x="450" y="500" as="targetPoint" />
          </mxGeometry>
        </mxCell>
        <mxCell id="bae6erq2w6pRyWb36ssz-59" value="" style="endArrow=none;html=1;rounded=0;exitX=0.5;exitY=0;exitDx=0;exitDy=0;entryX=0.5;entryY=1;entryDx=0;entryDy=0;" edge="1" parent="1" source="bae6erq2w6pRyWb36ssz-50" target="bae6erq2w6pRyWb36ssz-4">
          <mxGeometry width="50" height="50" relative="1" as="geometry">
            <mxPoint x="560" y="550" as="sourcePoint" />
            <mxPoint x="610" y="500" as="targetPoint" />
          </mxGeometry>
        </mxCell>
        <mxCell id="bae6erq2w6pRyWb36ssz-60" value="" style="endArrow=none;html=1;rounded=0;exitX=0.5;exitY=0;exitDx=0;exitDy=0;entryX=1;entryY=1;entryDx=0;entryDy=0;" edge="1" parent="1" source="bae6erq2w6pRyWb36ssz-52" target="bae6erq2w6pRyWb36ssz-4">
          <mxGeometry width="50" height="50" relative="1" as="geometry">
            <mxPoint x="600" y="540" as="sourcePoint" />
            <mxPoint x="650" y="490" as="targetPoint" />
          </mxGeometry>
        </mxCell>
        <mxCell id="bae6erq2w6pRyWb36ssz-61" value="" style="endArrow=none;html=1;rounded=0;entryX=0.5;entryY=1;entryDx=0;entryDy=0;exitX=0.089;exitY=-0.05;exitDx=0;exitDy=0;exitPerimeter=0;" edge="1" parent="1" source="bae6erq2w6pRyWb36ssz-1" target="bae6erq2w6pRyWb36ssz-6">
          <mxGeometry width="50" height="50" relative="1" as="geometry">
            <mxPoint x="70" y="250" as="sourcePoint" />
            <mxPoint x="120" y="200" as="targetPoint" />
          </mxGeometry>
        </mxCell>
        <mxCell id="bae6erq2w6pRyWb36ssz-62" value="" style="endArrow=none;html=1;rounded=0;exitX=0.5;exitY=0;exitDx=0;exitDy=0;entryX=0.5;entryY=1;entryDx=0;entryDy=0;" edge="1" parent="1" source="bae6erq2w6pRyWb36ssz-1" target="bae6erq2w6pRyWb36ssz-7">
          <mxGeometry width="50" height="50" relative="1" as="geometry">
            <mxPoint x="180" y="240" as="sourcePoint" />
            <mxPoint x="230" y="190" as="targetPoint" />
          </mxGeometry>
        </mxCell>
        <mxCell id="bae6erq2w6pRyWb36ssz-63" value="" style="endArrow=none;html=1;rounded=0;exitX=0.75;exitY=0;exitDx=0;exitDy=0;entryX=0.5;entryY=1;entryDx=0;entryDy=0;" edge="1" parent="1" source="bae6erq2w6pRyWb36ssz-1" target="bae6erq2w6pRyWb36ssz-8">
          <mxGeometry width="50" height="50" relative="1" as="geometry">
            <mxPoint x="220" y="250" as="sourcePoint" />
            <mxPoint x="270" y="200" as="targetPoint" />
          </mxGeometry>
        </mxCell>
      </root>
    </mxGraphModel>
  </diagram>
</mxfile>
